# xmcd
#
# Track frame offsets: 
#        150
#        17817
#        34357
#        47582
#        61060
#        72285
#        88962
#        100765
#        119185
#        133467
#        149155
#        165382
#        181730
#        198410
#        216830
#        232455
#        253882
#        273432
#        290082
#
# Disc length: 4100 seconds
#
# Revision: 3
# Processed by: cddbd v1.5.2PL0 Copyright (c) Steve Scherf et al.
# Submitted via: ExactAudioCopy v1.0b1
#
DISCID=3b100213
DTITLE=Various Artist - Amor de Mis Amores 93
DYEAR=1993
DGENRE=Latin
TTITLE0=Jose Y Los Reyes - Lailola (No arlas mas)
TTITLE1=Rumba Tres - Chao, chao, chao
TTITLE2=Gitano Boys - Anna Maria
TTITLE3=Los Martines - All my loving
TTITLE4=Paco Paco - Taka Takata
TTITLE5=Armadillo - ¿Onde esta Maria?
TTITLE6=Peret - El Lunar de Maria
TTITLE7=El Chato - Que Bonita Eres
TTITLE8=Juanito - Volare
TTITLE9=El Capitan - Porque Si, Porque No
TTITLE10=Star System - El ritmo loco
TTITLE11=Cameleon - Que pasa, que pasa
TTITLE12=Banda Blanca - Fiesta
TTITLE13=Rum Beat - Te tengo
TTITLE14=Los Reyes - Bamnoleo
TTITLE15=Ramonet - Rumba, Rumba
TTITLE16=Boy Thode - Que Siga La Vida
TTITLE17=Payo Juan Manuel - Son son sera
TTITLE18=Paco - Amor De Mis Amores (Remix)
EXTD=
EXTT0=
EXTT1=
EXTT2=
EXTT3=
EXTT4=
EXTT5=
EXTT6=
EXTT7=
EXTT8=
EXTT9=
EXTT10=
EXTT11=
EXTT12=
EXTT13=
EXTT14=
EXTT15=
EXTT16=
EXTT17=
EXTT18=
PLAYORDER=
